#!OML:ASF F:\VICON\USERDATA\INSTALL\rory3\rory3.ASF
:FULLY-SPECIFIED
:DEGREES
2449
root -0.116969 17.2991 -1.32885 28.167 -1.47805 0.476146
lowerback 13.9387 0.128926 0.316318
upperback -2.89747 0.292171 0.58549
thorax -11.0153 0.141489 0.389759
lowerneck -17.4806 -0.0778368 -8.84631
upperneck -15.2791 2.06012 9.06994
head -1.9828 1.4324 4.35522
rclavicle 3.37934e-015 7.55382e-015
rhumerus 31.6584 -48.0294 -130.082
rradius 14.8267
rwrist 131.964
rhand -50.9933 45.7014
rfingers 7.12502
rthumb -23.5422 17.1223
lclavicle 3.37934e-015 7.55382e-015
lhumerus 26.3184 -34.6475 58.4878
lradius 107.856
lwrist -31.1041
lhand -50.225 35.4654
lfingers 7.12502
lthumb -22.805 64.1373
rfemur -42.4384 11.8359 11.1901
rtibia 25.3865
rfoot -10.6117 -12.0667
rtoes -26.0148
lfemur -42.5697 -12.4908 -9.45658
ltibia 26.0764
lfoot -11.0237 12.093
ltoes -24.4668
2450
root -0.118837 17.3007 -1.32892 28.1412 -1.46123 0.522079
lowerback 13.9227 0.129432 0.321645
upperback -2.99204 0.294657 0.587141
thorax -11.1119 0.142414 0.388212
lowerneck -17.127 -0.0592294 -8.87905
upperneck -15.3348 2.06669 9.07803
head -2.04994 1.42864 4.35981
rclavicle -1.49089e-015 -6.36111e-015
rhumerus 31.3991 -48.1023 -129.871
rradius 14.8057
rwrist 131.859
rhand -51.0049 45.6802
rfingers 7.12502
rthumb -23.5533 17.1024
lclavicle -1.49089e-015 -6.36111e-015
lhumerus 25.6792 -34.8335 58.8436
lradius 106.165
lwrist -30.9729
lhand -50.4987 36.1196
lfingers 7.12502
lthumb -23.0677 64.7589
rfemur -42.4033 11.8603 11.131
rtibia 25.3949
rfoot -10.6456 -12.0814
rtoes -25.9806
lfemur -42.5257 -12.5247 -9.49681
ltibia 26.0309
lfoot -11.0717 12.0978
ltoes -24.4033
2451
root -0.119602 17.3036 -1.3286 28.054 -1.42945 0.528424
lowerback 14.0045 0.121048 0.402123
upperback -3.01171 0.296006 0.560812
thorax -11.1817 0.136572 0.313677
lowerneck -17.1099 -0.0505629 -8.81114
upperneck -15.2423 2.06181 9.08212
head -2.02302 1.42222 4.34862
rclavicle -1.39149e-015 -1.19271e-015
rhumerus 31.2928 -48.1261 -129.825
rradius 14.8111
rwrist 131.733
rhand -51.0279 45.6648
rfingers 7.12502
rthumb -23.5754 17.0899
lclavicle -1.39149e-015 -1.19271e-015
lhumerus 25.2293 -34.986 58.9682
lradius 104.414
lwrist -30.9398
lhand -50.45 37.3695
lfingers 7.12502
lthumb -23.0209 66.0146
rfemur -42.3305 11.8642 11.1648
rtibia 25.4211
rfoot -10.4947 -12.1321
rtoes -26.8674
lfemur -42.419 -12.5541 -9.5138
ltibia 26.0052
lfoot -11.1119 12.0696
ltoes -24.3312
2452
root -0.119663 17.3038 -1.32858 27.9945 -1.38702 0.489759
lowerback 14.035 0.13443 0.508972
upperback -2.9497 0.335003 0.578468
thorax -11.1298 0.14873 0.263113
lowerneck -17.1968 -0.0607779 -8.73372
upperneck -15.2971 2.0411 9.02112
head -2.02522 1.41054 4.31702
rclavicle -1.19271e-015 -4.37326e-015
rhumerus 31.4097 -48.044 -129.865
rradius 14.8205
rwrist 131.622
rhand -51.0944 45.8801
rfingers 7.12502
rthumb -23.6392 17.3134
lclavicle -1.19271e-015 -4.37326e-015
lhumerus 24.9713 -34.9845 59.1651
lradius 102.581
lwrist -31.1252
lhand -50.2982 38.3221
lfingers 7.12502
lthumb -22.8753 66.9854
rfemur -42.2214 11.8244 11.2543
rtibia 25.3915
rfoot -10.6463 -12.0903
rtoes -26.0909
lfemur -42.3673 -12.5844 -9.46653
ltibia 26.0254
lfoot -11.2428 12.0579
ltoes -23.6336
2453
root -0.121056 17.3022 -1.32975 27.9583 -1.3156 0.40773
lowerback 13.9343 0.161183 0.540259
upperback -2.77597 0.387604 0.709113
thorax -10.8769 0.177245 0.374952
lowerneck -17.4681 -0.105392 -8.80849
upperneck -15.3821 2.01253 8.94373
head -2.01235 1.40743 4.30787
rclavicle -4.96962e-015 -9.14409e-015
rhumerus 31.74 -47.7645 -129.908
rradius 14.8014
rwrist 131.518
rhand -51.0717 45.9595
rfingers 7.12502
rthumb -23.6174 17.39
lclavicle -4.96962e-015 -9.14409e-015
lhumerus 24.9298 -34.762 59.5014
lradius 100.633
lwrist -31.2694
lhand -50.2856 38.4727
lfingers 7.12502
lthumb -22.8632 67.1375
rfemur -42.1248 11.7933 11.3957
rtibia 25.3377
rfoot -10.7064 -12.1075
rtoes -25.9001
lfemur -42.372 -12.5838 -9.3646
ltibia 26.0833
lfoot -11.4216 11.9737
ltoes -22.7534
2454
root -0.122561 17.2988 -1.33113 27.9364 -1.27032 0.392008
lowerback 13.8728 0.179298 0.509725
upperback -2.70819 0.414315 0.798383
thorax -10.7662 0.195486 0.482902
lowerneck -17.5228 -0.0965712 -8.79122
upperneck -15.4174 2.01679 8.80855
head -2.01708 1.41103 4.26296
rclavicle 2.98177e-015 -4.77083e-015
rhumerus 31.8546 -47.59 -129.877
rradius 14.82
rwrist 131.448
rhand -51.1752 45.9496
rfingers 7.12502
rthumb -23.7167 17.3929
lclavicle 2.98177e-015 -4.77083e-015
lhumerus 24.7255 -34.5998 59.8916
lradius 98.6467
lwrist -31.2994
lhand -50.2767 38.6951
lfingers 7.12502
lthumb -22.8547 67.3609
rfemur -42.0997 11.7951 11.4269
rtibia 25.3163
rfoot -10.6045 -12.1422
rtoes -26.1524
lfemur -42.3963 -12.5816 -9.34309
ltibia 26.1364
lfoot -11.3732 11.97
ltoes -22.851
2455
root -0.123443 17.2966 -1.33118 27.8689 -1.23184 0.40138
lowerback 13.8711 0.207132 0.565862
upperback -2.74221 0.462743 0.805706
thorax -10.803 0.215202 0.448072
lowerneck -17.2773 -0.0845566 -8.63978
upperneck -15.4088 1.97 8.5701
head -2.04521 1.37589 4.15748
rclavicle -7.15625e-015 -1.70955e-014
rhumerus 31.7799 -47.6752 -129.753
rradius 14.7881
rwrist 131.481
rhand -51.6191 45.612
rfingers 7.12502
rthumb -24.1423 17.1112
lclavicle -7.15625e-015 -1.70955e-014
lhumerus 24.3439 -34.6546 60.3635
lradius 96.6783
lwrist -31.2948
lhand -50.6886 39.0902
lfingers 7.12502
lthumb -23.2499 67.7066
rfemur -42.0427 11.7945 11.437
rtibia 25.3097
rfoot -10.5712 -12.1773
rtoes -26.4407
lfemur -42.3487 -12.6269 -9.34007
ltibia 26.1675
lfoot -11.4508 11.9291
ltoes -22.5034
2456
root -0.124785 17.3 -1.33176 27.8367 -1.20573 0.420796
lowerback 13.8305 0.208263 0.60772
upperback -2.75174 0.473983 0.830577
thorax -10.7898 0.218872 0.448897
lowerneck -17.2431 -0.086341 -8.63987
upperneck -15.2767 1.94902 8.45982
head -2.00933 1.36531 4.12049
rclavicle 1.39149e-015 1.19271e-015
rhumerus 31.7693 -47.6142 -129.677
rradius 14.6802
rwrist 131.339
rhand -52.0183 45.4088
rfingers 7.12502
rthumb -24.5251 16.9593
lclavicle 1.39149e-015 1.19271e-015
lhumerus 23.982 -34.5999 60.8241
lradius 94.6673
lwrist -31.1778
lhand -51.4212 39.4376
lfingers 7.12502
lthumb -23.9526 67.9635
rfemur -42.0015 11.81 11.4197
rtibia 25.3331
rfoot -10.6838 -12.1763
rtoes -26.1141
lfemur -42.3095 -12.6594 -9.35175
ltibia 26.1518
lfoot -11.3506 11.9706
ltoes -23.1374
2457
root -0.126495 17.3024 -1.33316 27.7935 -1.1361 0.422054
lowerback 13.8236 0.148481 0.611646
upperback -2.74702 0.407769 0.956912
thorax -10.7814 0.192027 0.598966
lowerneck -17.1493 -0.0299092 -8.78895
upperneck -15.2696 2.0306 8.35254
head -2.0303 1.41221 4.11272
rclavicle 1.98785e-015 -1.19271e-015
rhumerus 31.552 -47.3497 -129.432
rradius 14.6185
rwrist 131.123
rhand -52.3405 45.3655
rfingers 7.12502
rthumb -24.8339 16.9582
lclavicle 1.98785e-015 -1.19271e-015
lhumerus 23.4661 -34.3361 61.4782
lradius 92.6308
lwrist -31.1736
lhand -51.9638 39.9252
lfingers 7.12502
lthumb -24.4728 68.3817
rfemur -41.9542 11.8282 11.4376
rtibia 25.3795
rfoot -10.7428 -12.2286
rtoes -26.0263
lfemur -42.2547 -12.6964 -9.32912
ltibia 26.1047
lfoot -11.209 11.9237
ltoes -23.6387
2458
root -0.12587 17.3028 -1.33363 27.7764 -1.14205 0.451528
lowerback 13.7195 0.145606 0.549585
upperback -2.70862 0.403056 1.07239
thorax -10.6789 0.198196 0.76023
lowerneck -17.0652 -0.00257236 -8.94234
upperneck -15.2785 2.07448 8.23132
head -2.05178 1.44112 4.10029
rclavicle 1.19271e-015 -7.15625e-015
rhumerus 31.4806 -47.1112 -129.22
rradius 14.569
rwrist 130.903
rhand -52.3921 45.3124
rfingers 7.12502
rthumb -24.8833 16.9119
lclavicle 1.19271e-015 -7.15625e-015
lhumerus 23.1465 -34.0882 62.1156
lradius 90.6289
lwrist -31.3461
lhand -52.0415 41.1149
lfingers 7.12502
lthumb -24.5473 69.5613
rfemur -41.9699 11.7774 11.4365
rtibia 25.4323
rfoot -10.6291 -12.2526
rtoes -26.4707
lfemur -42.2205 -12.7516 -9.34339
ltibia 26.0541
lfoot -11.0821 11.9877
ltoes -24.0996
2459
root -0.125324 17.3034 -1.33482 27.7945 -1.16345 0.53357
lowerback 13.5668 0.139387 0.461807
upperback -2.68712 0.382414 1.12392
thorax -10.5661 0.19579 0.870119
lowerneck -17.0829 0.0380725 -8.9282
upperneck -15.1006 2.10307 8.03263
head -1.99961 1.45587 4.0347
rclavicle 2.78299e-015 3.57812e-015
rhumerus 31.4151 -46.921 -129.112
rradius 14.614
rwrist 130.67
rhand -52.121 45.7448
rfingers 7.12502
rthumb -24.6235 17.3087
lclavicle 2.78299e-015 3.57812e-015
lhumerus 22.9549 -33.894 62.6393
lradius 88.7047
lwrist -31.3892
lhand -51.7988 42.5239
lfingers 7.12502
lthumb -24.3147 71.0017
rfemur -42.0177 11.6896 11.3785
rtibia 25.4532
rfoot -10.4669 -12.229
rtoes -26.9531
lfemur -42.2363 -12.7697 -9.43444
ltibia 26.0319
lfoot -10.9938 12.0548
ltoes -24.681
2460
root -0.124652 17.3005 -1.33566 27.7693 -1.15065 0.57782
lowerback 13.5357 0.111429 0.465105
upperback -2.70689 0.349978 1.1677
thorax -10.5698 0.181812 0.92305
lowerneck -17.1101 0.0623855 -8.91072
upperneck -14.8497 2.11053 7.8804
head -1.92162 1.459 3.98247
rclavicle -1.98785e-016 -1.23246e-014
rhumerus 31.2559 -46.7828 -128.956
rradius 14.7115
rwrist 130.515
rhand -51.5551 46.3846
rfingers 7.12502
rthumb -24.0809 17.8756
lclavicle -1.98785e-016 -1.23246e-014
lhumerus 22.6879 -33.6498 63.2102
lradius 86.6073
lwrist -31.4323
lhand -51.6452 43.2694
lfingers 7.12502
lthumb -24.1674 71.7669
rfemur -42.0081 11.6851 11.3185
rtibia 25.4845
rfoot -10.5548 -12.2645
rtoes -26.7507
lfemur -42.2008 -12.789 -9.48993
ltibia 25.997
lfoot -11.0863 12.0412
ltoes -24.2917
2461
root -0.125227 17.2981 -1.33728 27.652 -1.12609 0.624782
lowerback 13.6748 0.0912304 0.539288
upperback -2.74042 0.334925 1.13564
thorax -10.688 0.16887 0.85026
lowerneck -17.0147 0.0624419 -8.84149
upperneck -14.64 2.07594 7.7993
head -1.86839 1.43568 3.94193
rclavicle -3.77691e-015 -3.97569e-016
rhumerus 31.1503 -46.7599 -128.951
rradius 14.8087
rwrist 130.139
rhand -50.9541 47.2559
rfingers 7.12502
rthumb -23.5046 18.6719
lclavicle -3.77691e-015 -3.97569e-016
lhumerus 22.3997 -33.4397 63.7399
lradius 84.4322
lwrist -31.5194
lhand -51.6611 42.7687
lfingers 7.12502
lthumb -24.1826 71.2642
rfemur -41.8979 11.6837 11.2835
rtibia 25.5319
rfoot -10.6854 -12.2986
rtoes -26.3015
lfemur -42.0648 -12.8214 -9.56678
ltibia 25.9478
lfoot -11.1152 11.9635
ltoes -23.7913
2462
root -0.127031 17.302 -1.33972 27.5773 -1.11447 0.66259
lowerback 13.7292 0.0889605 0.59159
upperback -2.77682 0.337184 1.08559
thorax -10.7599 0.164747 0.766188
lowerneck -16.701 0.106666 -8.67176
upperneck -14.6306 2.07106 7.63643
head -1.90819 1.41944 3.85857
rclavicle -9.93923e-016 -1.15295e-014
rhumerus 31.1147 -46.7875 -128.986
rradius 14.7842
rwrist 129.799
rhand -50.7469 47.3878
rfingers 7.12502
rthumb -23.3058 18.7785
lclavicle -9.93923e-016 -1.15295e-014
lhumerus 22.0779 -33.2088 64.2737
lradius 82.3795
lwrist -31.5209
lhand -51.6132 41.7769
lfingers 7.12502
lthumb -24.1367 70.2785
rfemur -41.8421 11.6627 11.2864
rtibia 25.5837
rfoot -10.6607 -12.2664
rtoes -26.2408
lfemur -41.9584 -12.8106 -9.64268
ltibia 25.8892
lfoot -11.1583 11.8621
ltoes -23.1557
2463
root -0.126038 17.3048 -1.34149 27.5119 -1.09975 0.713092
lowerback 13.7299 0.0786713 0.6487
upperback -2.78239 0.329991 1.05065
thorax -10.7659 0.156325 0.697606
lowerneck -16.5642 0.163132 -8.52218
upperneck -14.4794 2.09156 7.43673
head -1.88293 1.42044 3.76896
rclavicle -5.96354e-016 -1.43125e-014
rhumerus 31.0914 -46.7474 -129.026
rradius 14.7857
rwrist 129.783
rhand -50.8066 47.0321
rfingers 7.12502
rthumb -23.3631 18.43
lclavicle -5.96354e-016 -1.43125e-014
lhumerus 21.9371 -32.9735 64.7496
lradius 80.2147
lwrist -31.4409
lhand -51.8098 41.0878
lfingers 7.12502
lthumb -24.3251 69.5642
rfemur -41.8267 11.5854 11.2917
rtibia 25.6592
rfoot -10.5095 -12.2268
rtoes -26.9694
lfemur -41.8415 -12.8113 -9.73548
ltibia 25.8003
lfoot -11.2449 11.7618
ltoes -22.5444
